<?xml version="1.0" standalone="no"?>
<!DOCTYPE svg PUBLIC "-//W3C//DTD SVG 20010904//EN"
 "http://www.w3.org/TR/2001/REC-SVG-20010904/DTD/svg10.dtd">
<svg version="1.0" xmlns="http://www.w3.org/2000/svg"
 width="512.000000pt" height="512.000000pt" viewBox="0 0 512.000000 512.000000"
 preserveAspectRatio="xMidYMid meet">
<metadata>
Created by potrace 1.11, written by Peter Selinger 2001-2013
</metadata>
<g transform="translate(0.000000,512.000000) scale(0.100000,-0.100000)"
fill="#000000" stroke="none">
<path d="M2300 4785 c-688 -83 -1295 -474 -1656 -1065 -394 -646 -430 -1464
-95 -2145 347 -703 1019 -1167 1806 -1246 144 -14 396 -7 545 16 825 128 1520
715 1783 1505 188 563 147 1167 -112 1695 -121 244 -264 439 -460 627 -363
348 -801 555 -1299 613 -151 18 -366 18 -512 0z m560 -490 c669 -120 1206
-604 1393 -1255 48 -165 61 -271 61 -480 0 -209 -13 -315 -61 -480 -169 -588
-625 -1044 -1213 -1213 -165 -48 -271 -61 -480 -61 -209 0 -315 13 -480 61
-588 169 -1044 625 -1213 1213 -48 165 -61 271 -61 480 0 209 13 315 61 480
177 617 677 1093 1298 1236 203 46 496 54 695 19z"/>
</g>
</svg>
